<?xml version="1.0" encoding="UTF-8" standalone="no"?>
<!DOCTYPE svg PUBLIC "-//W3C//DTD SVG 1.1//EN"
 "http://www.w3.org/Graphics/SVG/1.1/DTD/svg11.dtd">
<!-- Generated by graphviz version 2.43.0 (0)
 -->
<!-- Title: %3 Pages: 1 -->
<svg width="261pt" height="210pt"
 viewBox="0.00 0.00 261.00 210.00" xmlns="http://www.w3.org/2000/svg" xmlns:xlink="http://www.w3.org/1999/xlink">
<g id="graph0" class="graph" transform="scale(1 1) rotate(0) translate(4 206)">
<title>%3</title>
<polygon fill="white" stroke="transparent" points="-4,4 -4,-206 257,-206 257,4 -4,4"/>
<!-- Alien1 -->
<g id="node1" class="node">
<title>Alien1</title>
<polygon fill="none" stroke="black" points="149,-177 149,-198 245,-198 245,-177 149,-177"/>
<text text-anchor="start" x="172.5" y="-184.8" font-family="Helvetica,sans-Serif" font-weight="bold" font-size="14.00">Alien1</text>
<polygon fill="none" stroke="black" points="149,-156 149,-177 164,-177 164,-156 149,-156"/>
<text text-anchor="start" x="152" y="-162.8" font-family="Helvetica,sans-Serif" font-size="14.00">x</text>
<polyline fill="none" stroke="black" points="204,-177 164,-177 164,-156 204,-156 "/>
<text text-anchor="start" x="167" y="-163.8" font-family="Helvetica,sans-Serif" font-style="italic" font-size="14.00">any</text>
<polyline fill="none" stroke="black" points="204,-156 245,-156 245,-177 204,-177 "/>
<text text-anchor="start" x="207" y="-162.8" font-family="Helvetica,sans-Serif" font-size="14.00">🔑❄️</text>
<polygon fill="none" stroke="black" points="149,-135 149,-156 164,-156 164,-135 149,-135"/>
<text text-anchor="start" x="152" y="-141.8" font-family="Helvetica,sans-Serif" font-size="14.00">y</text>
<polyline fill="none" stroke="black" points="204,-156 164,-156 164,-135 204,-135 "/>
<text text-anchor="start" x="167" y="-142.8" font-family="Helvetica,sans-Serif" font-style="italic" font-size="14.00">any</text>
<polyline fill="none" stroke="black" points="204,-135 245,-135 245,-156 204,-156 "/>
<text text-anchor="start" x="207" y="-141.8" font-family="Helvetica,sans-Serif" font-size="14.00">🔑❄️</text>
<polygon fill="none" stroke="black" points="149,-114 149,-135 164,-135 164,-114 149,-114"/>
<text text-anchor="start" x="152.5" y="-120.8" font-family="Helvetica,sans-Serif" font-size="14.00">z</text>
<polyline fill="none" stroke="black" points="204,-135 164,-135 164,-114 204,-114 "/>
<text text-anchor="start" x="167" y="-121.8" font-family="Helvetica,sans-Serif" font-style="italic" font-size="14.00">any?</text>
<polyline fill="none" stroke="black" points="204,-114 245,-114 245,-135 204,-135 "/>
</g>
<!-- Alien2 -->
<g id="node2" class="node">
<title>Alien2</title>
<polygon fill="none" stroke="black" points="149,-67 149,-88 245,-88 245,-67 149,-67"/>
<text text-anchor="start" x="172.5" y="-74.8" font-family="Helvetica,sans-Serif" font-weight="bold" font-size="14.00">Alien2</text>
<polygon fill="none" stroke="black" points="149,-46 149,-67 164,-67 164,-46 149,-46"/>
<text text-anchor="start" x="154.5" y="-52.8" font-family="Helvetica,sans-Serif" font-size="14.00">i</text>
<polyline fill="none" stroke="black" points="204,-67 164,-67 164,-46 204,-46 "/>
<text text-anchor="start" x="167" y="-53.8" font-family="Helvetica,sans-Serif" font-style="italic" font-size="14.00">any</text>
<polyline fill="none" stroke="black" points="204,-46 245,-46 245,-67 204,-67 "/>
<text text-anchor="start" x="207" y="-52.8" font-family="Helvetica,sans-Serif" font-size="14.00">🔑❄️</text>
<polygon fill="none" stroke="black" points="149,-25 149,-46 164,-46 164,-25 149,-25"/>
<text text-anchor="start" x="154.5" y="-31.8" font-family="Helvetica,sans-Serif" font-size="14.00">j</text>
<polyline fill="none" stroke="black" points="204,-46 164,-46 164,-25 204,-25 "/>
<text text-anchor="start" x="167" y="-32.8" font-family="Helvetica,sans-Serif" font-style="italic" font-size="14.00">any</text>
<polyline fill="none" stroke="black" points="204,-25 245,-25 245,-46 204,-46 "/>
<text text-anchor="start" x="207" y="-31.8" font-family="Helvetica,sans-Serif" font-size="14.00">🔑❄️</text>
<polygon fill="none" stroke="black" points="149,-4 149,-25 164,-25 164,-4 149,-4"/>
<text text-anchor="start" x="152" y="-10.8" font-family="Helvetica,sans-Serif" font-size="14.00">k</text>
<polyline fill="none" stroke="black" points="204,-25 164,-25 164,-4 204,-4 "/>
<text text-anchor="start" x="167" y="-11.8" font-family="Helvetica,sans-Serif" font-style="italic" font-size="14.00">any?</text>
<polyline fill="none" stroke="black" points="204,-4 245,-4 245,-25 204,-25 "/>
</g>
<!-- Native -->
<g id="node3" class="node">
<title>Native</title>
<polygon fill="none" stroke="black" points="8.5,-164 8.5,-185 97.5,-185 97.5,-164 8.5,-164"/>
<text text-anchor="start" x="27" y="-171.8" font-family="Helvetica,sans-Serif" font-weight="bold" font-size="14.00">Native</text>
<polygon fill="none" stroke="black" points="8.5,-143 8.5,-164 24.5,-164 24.5,-143 8.5,-143"/>
<text text-anchor="start" x="12" y="-149.8" font-family="Helvetica,sans-Serif" font-size="14.00">a</text>
<polyline fill="none" stroke="black" points="56.5,-164 24.5,-164 24.5,-143 56.5,-143 "/>
<text text-anchor="start" x="27.5" y="-150.8" font-family="Helvetica,sans-Serif" font-style="italic" font-size="14.00">any</text>
<polyline fill="none" stroke="black" points="56.5,-143 97.5,-143 97.5,-164 56.5,-164 "/>
<text text-anchor="start" x="59.5" y="-149.8" font-family="Helvetica,sans-Serif" font-size="14.00">🔑❄️</text>
<polygon fill="none" stroke="black" points="8.5,-122 8.5,-143 24.5,-143 24.5,-122 8.5,-122"/>
<text text-anchor="start" x="11.5" y="-128.8" font-family="Helvetica,sans-Serif" font-size="14.00">b</text>
<polyline fill="none" stroke="black" points="56.5,-143 24.5,-143 24.5,-122 56.5,-122 "/>
<text text-anchor="start" x="27.5" y="-129.8" font-family="Helvetica,sans-Serif" font-style="italic" font-size="14.00">any</text>
<polyline fill="none" stroke="black" points="56.5,-122 97.5,-122 97.5,-143 56.5,-143 "/>
<polygon fill="none" stroke="black" points="8.5,-101 8.5,-122 24.5,-122 24.5,-101 8.5,-101"/>
<text text-anchor="start" x="12.5" y="-107.8" font-family="Helvetica,sans-Serif" font-size="14.00">c</text>
<polyline fill="none" stroke="black" points="56.5,-122 24.5,-122 24.5,-101 56.5,-101 "/>
<text text-anchor="start" x="27.5" y="-108.8" font-family="Helvetica,sans-Serif" font-style="italic" font-size="14.00">any</text>
<polyline fill="none" stroke="black" points="56.5,-101 97.5,-101 97.5,-122 56.5,-122 "/>
<polygon fill="none" stroke="black" points="8.5,-80 8.5,-101 24.5,-101 24.5,-80 8.5,-80"/>
<text text-anchor="start" x="12" y="-86.8" font-family="Helvetica,sans-Serif" font-size="14.00">e</text>
<polyline fill="none" stroke="black" points="56.5,-101 24.5,-101 24.5,-80 56.5,-80 "/>
<text text-anchor="start" x="27.5" y="-87.8" font-family="Helvetica,sans-Serif" font-style="italic" font-size="14.00">any</text>
<polyline fill="none" stroke="black" points="56.5,-80 97.5,-80 97.5,-101 56.5,-101 "/>
<polygon fill="none" stroke="black" points="8.5,-59 8.5,-80 24.5,-80 24.5,-59 8.5,-59"/>
<text text-anchor="start" x="13.5" y="-65.8" font-family="Helvetica,sans-Serif" font-size="14.00">f</text>
<polyline fill="none" stroke="black" points="56.5,-80 24.5,-80 24.5,-59 56.5,-59 "/>
<text text-anchor="start" x="27.5" y="-66.8" font-family="Helvetica,sans-Serif" font-style="italic" font-size="14.00">any</text>
<polyline fill="none" stroke="black" points="56.5,-59 97.5,-59 97.5,-80 56.5,-80 "/>
</g>
<!-- Native&#45;&gt;Alien1 -->
<g id="edge3" class="edge">
<title>Native:e&#45;&gt;Alien1:_</title>
<path fill="none" stroke="black" d="M98.5,-133C121.23,-133 121.79,-157.66 137.94,-164.97"/>
<polygon fill="black" stroke="black" points="137.51,-168.46 148,-167 138.89,-161.6 137.51,-168.46"/>
</g>
<!-- Native&#45;&gt;Alien1 -->
<g id="edge4" class="edge">
<title>Native:e&#45;&gt;Alien1:_</title>
<path fill="none" stroke="black" d="M98.5,-111C121.23,-111 121.79,-135.66 137.94,-142.97"/>
<polygon fill="black" stroke="black" points="137.51,-146.46 148,-145 138.89,-139.6 137.51,-146.46"/>
</g>
<!-- Native&#45;&gt;Alien2 -->
<g id="edge1" class="edge">
<title>Native:e&#45;&gt;Alien2:_</title>
<path fill="none" stroke="black" d="M98.5,-90C121.02,-90 121.91,-66.07 138,-58.97"/>
<polygon fill="black" stroke="black" points="138.86,-62.36 148,-57 137.51,-55.49 138.86,-62.36"/>
</g>
<!-- Native&#45;&gt;Alien2 -->
<g id="edge2" class="edge">
<title>Native:e&#45;&gt;Alien2:_</title>
<path fill="none" stroke="black" d="M98.5,-69C121.23,-69 121.79,-44.34 137.94,-37.03"/>
<polygon fill="black" stroke="black" points="138.89,-40.4 148,-35 137.51,-33.54 138.89,-40.4"/>
</g>
</g>
</svg>
